 <svg
      width="30"
      height="30"
      viewBox="0 0 30 30"
      fill="#c88c32"
      xmlns="http://www.w3.org/2000/svg"
    >
      <path
        fillRule="evenodd"
        clipRule="evenodd"
        d="M22.0605 0.0360633C19.7211 0.358798 17.6589 1.8469 16.6671 3.92809C16.1508 5.01155 15.9708 5.80684 15.9708 7.00427C15.9708 7.8905 16.0516 8.43331 16.2942 9.17581C16.8518 10.8823 18.128 12.3982 19.6949 13.215C20.1316 13.4427 21.2782 13.8597 21.4674 13.8597C21.5515 13.8597 21.5625 13.9781 21.5625 14.8851V15.9105H21.0938H20.625V22.473V29.0355H19.6875H18.75V21.5355V14.0355H16.4062H14.0625V21.5355V29.0355H13.125H12.1875V23.4105V17.7855H9.84375H7.5V23.4105V29.0355H6.5625H5.625V25.7543V22.473H3.28125H0.9375V25.7543V29.0355H0.46875H0V29.5043V29.973H15H30V29.5043V29.0355H27.6562H25.3125V22.473V15.9105H24.8438H24.375V14.8952V13.8798L24.6533 13.8155C25.1505 13.7005 25.9273 13.3928 26.3992 13.1239C28.2205 12.086 29.4223 10.4232 29.8666 8.3262C30.0029 7.68302 30.0029 6.32552 29.8666 5.68233C29.2603 2.82091 27.1785 0.723016 24.3457 0.118505C23.8232 0.00700077 22.5929 -0.0374133 22.0605 0.0360633ZM24.0007 0.994305C26.3999 1.41653 28.3039 3.1979 28.8982 5.57604C29.0738 6.2787 29.0863 7.62618 28.9238 8.32263C28.533 9.99718 27.507 11.3958 26.0222 12.2779C25.4643 12.6093 24.8205 12.8455 24.0733 12.993L23.4375 13.1184V14.5145V15.9105H22.9688H22.5V14.5095V13.1086L22.0752 13.038C21.2142 12.8949 20.1908 12.4904 19.5171 12.0269C19.1341 11.7634 18.3769 11.0248 18.0663 10.6117C17.5162 9.87999 17.0711 8.78903 16.9305 7.8278C16.8316 7.15128 16.8896 6.17956 17.071 5.47386C17.5594 3.57436 18.9843 1.98343 20.8137 1.2953C21.763 0.938231 23.0118 0.820282 24.0007 0.994305ZM22.2255 1.90708C20.3429 2.18229 18.7083 3.54577 18.1122 5.33798C17.6616 6.69272 17.743 7.97956 18.3603 9.26013C19.0015 10.5905 20.2429 11.6036 21.709 11.9933C22.3746 12.1702 23.5659 12.1697 24.2285 11.9924C27.4294 11.1356 29.0229 7.64042 27.5578 4.68981C26.589 2.7387 24.3892 1.59073 22.2255 1.90708ZM23.9576 2.90399C25.1756 3.19597 26.2018 4.02454 26.7498 5.15856C27.337 6.3735 27.3326 7.64294 26.737 8.87739C26.5088 9.35042 26.3903 9.51126 25.933 9.96852C25.4761 10.4254 25.3145 10.5445 24.8419 10.7728C24.1193 11.1219 23.4954 11.2503 22.7365 11.2061C21.6352 11.1419 20.8124 10.7679 20.0026 9.96325C19.5454 9.50891 19.4295 9.35206 19.2005 8.87739C18.5959 7.62425 18.5964 6.39489 19.2021 5.12927C19.4313 4.6502 19.5429 4.49862 20.0028 4.04177C20.4102 3.637 20.6505 3.45261 21.0147 3.26546C21.9269 2.79665 22.9735 2.66809 23.9576 2.90399ZM21.9141 4.807L20.89 5.83239L21.2258 6.16831L21.5617 6.50423L22.0309 6.03782L22.5 5.57147V7.69409V9.81677H22.9688H23.4375V7.69409V5.57147L23.9066 6.03782L24.3758 6.50423L24.7117 6.16831L25.0475 5.83239L24.0234 4.807C23.4602 4.24304 22.9856 3.78161 22.9688 3.78161C22.9519 3.78161 22.4773 4.24304 21.9141 4.807Z"
        fill="#c88c32"
      />
    </svg>